<svg xmlns="http://www.w3.org/2000/svg" xml:space="preserve" width="169.333mm" height="169.333mm" version="1.1" style="shape-rendering:geometricPrecision;text-rendering:geometricPrecision;image-rendering:optimizeQuality;fill-rule:evenodd;clip-rule:evenodd" viewBox="0 0 16933.32 16933.32" xmlns:xlink="http://www.w3.org/1999/xlink"><defs><style type="text/css">.fil0{fill:#f27052}</style></defs><g id="Camada_x0020_1"><path id="Logo" class="fil0" d="M8093.31 15712.18c-257.05,-67.45 -380.53,-210.65 -604.95,-377.27 -1553.89,-1153.54 -2686.9,-1819.88 -4636.35,-2300.61 -782.73,-193.04 -1786.78,-124.92 -1786.72,-990.39l0.03 -10083.61c0.03,-893.33 1349.6,-588.25 2090.48,-499.01 1779.72,214.46 3647.57,840.58 4751.49,2254.42 72.34,92.67 133.35,179.72 186.02,260.82l0 11735.65zm694.36 -11735.62c52.69,-81.13 113.68,-168.15 186.05,-260.85 1103.92,-1413.84 2971.77,-2039.96 4751.49,-2254.42 740.88,-89.24 2090.45,-394.32 2090.48,499.01l0.03 10083.61c0.05,865.47 -1003.99,797.35 -1786.72,990.39 -592.18,146.04 -1108.96,309.24 -1585.15,497.98 52.4,-43.29 100.38,-87.69 139.77,-130.86 63.68,-69.77 144.22,-129.78 209.01,-208.69 66.81,-81.37 119.21,-150.31 178.29,-237.98 228.75,-339.37 361.95,-705.11 414.47,-1233.9 17.31,-174.25 8.85,-3759.19 5.24,-4012.87l928.04 16.58c123.31,-0.15 183.27,-5.8 260.5,-61.89 57.76,-41.97 110.39,-114.02 123.11,-198.88 36.52,-243.89 -94.02,-332.55 -200.26,-437.87 -559.92,-555.22 -1218.7,-1200.49 -1762.9,-1763.2 -257.22,-266.01 -398.78,-64.2 -599.65,136.05l-1610.57 1611.15c-115.57,115.17 -236.16,179.31 -219.67,423.91 13.39,198.52 159.75,290.2 370.98,290.73l944.77 -14.15c-14.65,659.69 -1.62,3833.88 -1.18,4524.91 0.56,863.33 -412.16,1501.05 -1167.21,1779.1l-105.65 37.43c-46.98,24.19 -17.95,6.12 -42.59,29.96 401.18,-1.87 736.87,8.5 1073.02,-54.01 -653.85,352.88 -1277.16,778.87 -1988.72,1307.11 -224.42,166.62 -347.9,309.82 -604.98,377.27l0 -11735.62z"/></g></svg>